<?xml version="1.0" standalone="no"?>
<!DOCTYPE svg PUBLIC "-//W3C//DTD SVG 20010904//EN"
 "http://www.w3.org/TR/2001/REC-SVG-20010904/DTD/svg10.dtd">
<svg version="1.0" xmlns="http://www.w3.org/2000/svg"
 width="150.000000pt" height="150.000000pt" viewBox="0 0 150.000000 150.000000"
 preserveAspectRatio="xMidYMid meet">
<metadata>
Created by potrace 1.16, written by Peter Selinger 2001-2019
</metadata>
<g transform="translate(0.000000,150.000000) scale(0.100000,-0.100000)"
fill="#000000" stroke="none">
<path d="M661 1053 c-27 -10 -67 -38 -102 -72 -75 -74 -103 -145 -97 -247 8
-117 59 -199 165 -261 46 -27 55 -28 191 -31 139 -4 142 -3 142 17 0 20 -5 21
-122 21 -108 0 -129 3 -173 24 -105 48 -175 169 -162 279 12 99 102 207 197
236 20 6 87 11 149 11 104 0 111 1 111 20 0 19 -6 20 -127 19 -89 0 -142 -5
-172 -16z"/>
<path d="M1010 755 c0 -308 0 -315 20 -315 20 0 20 7 20 315 0 308 0 315 -20
315 -20 0 -20 -7 -20 -315z"/>
</g>
</svg>
